M48
;DRILL file {KiCad 4.0.6} date 05/03/18 12:24:11
;FORMAT={-:-/ absolute / metric / decimal}
FMAT,2
METRIC,TZ
T1C0.400
T2C0.762
T3C0.800
T4C0.813
T5C0.850
T6C1.000
T7C1.016
T8C1.100
T9C1.300
%
G90
G05
M71
T1
X46.228Y-168.275
X46.228Y-169.418
X50.292Y-212.09
X65.659Y-168.275
X65.659Y-169.418
X69.596Y-78.613
X74.676Y-83.439
X77.216Y-68.834
X82.296Y-219.202
X82.582Y-130.048
X82.582Y-138.557
X82.677Y-60.96
X83.82Y-218.44
X85.217Y-211.074
X85.852Y-83.693
X85.852Y-93.853
X85.979Y-218.567
X86.868Y-211.836
X87.376Y-218.186
X87.884Y-212.598
X88.646Y-65.024
X88.646Y-68.58
X89.535Y-210.693
X91.948Y-228.219
X92.583Y-207.772
X93.345Y-203.454
X96.266Y-55.499
X96.266Y-68.326
X99.06Y-192.024
X104.521Y-92.837
X104.521Y-99.568
X113.03Y-180.34
X118.872Y-203.962
X126.702Y-166.922
X137.922Y-176.276
X138.43Y-202.94
X139.065Y-196.85
X148.844Y-147.193
X148.971Y-164.973
X149.987Y-169.418
X151.257Y-194.056
X155.194Y-137.795
X156.591Y-207.01
X159.65Y-154.548
X162.179Y-169.291
X163.195Y-135.509
X164.973Y-222.631
X171.323Y-195.707
X171.323Y-200.914
X180.086Y-122.936
X181.356Y-206.629
X181.991Y-216.027
X189.484Y-219.456
X189.738Y-158.242
X189.865Y-211.709
X193.421Y-158.242
X201.676Y-98.552
X201.676Y-100.076
X201.676Y-97.028
X208.026Y-207.518
X211.328Y-155.575
X211.328Y-161.798
X213.36Y-101.6
X213.36Y-180.975
X213.487Y-191.008
X218.186Y-206.502
X219.456Y-149.352
X221.742Y-150.114
X221.742Y-154.559
X221.869Y-157.607
X223.266Y-94.234
X223.774Y-102.108
X224.282Y-95.504
X227.076Y-90.17
X232.41Y-76.962
X233.68Y-80.264
X233.934Y-94.234
X234.315Y-211.455
X235.204Y-91.44
X235.712Y-218.44
X238.252Y-97.79
X239.268Y-206.756
X239.268Y-220.599
X244.221Y-220.98
X244.267Y-206.329
X246.126Y-211.582
X247.396Y-80.264
X247.65Y-157.226
X247.904Y-150.114
X248.031Y-162.306
X252.857Y-162.306
X252.984Y-150.114
X253.492Y-157.48
X279.4Y-188.341
X279.4Y-195.707
X289.179Y-210.566
X289.179Y-219.456
X302.133Y-208.153
X302.133Y-219.456
X302.133Y-166.243
X302.145Y-175.641
X311.277Y-211.455
T2
X44.45Y-201.93
X46.99Y-125.73
X46.99Y-201.93
X49.53Y-201.93
X52.07Y-125.73
X52.07Y-201.93
X77.47Y-201.93
X80.01Y-125.73
X80.01Y-201.93
X82.55Y-201.93
X85.09Y-125.73
X85.09Y-201.93
X110.49Y-201.93
X113.03Y-125.73
X113.03Y-201.93
X115.57Y-201.93
X118.11Y-125.73
X118.11Y-201.93
X143.51Y-201.93
X146.05Y-125.73
X146.05Y-201.93
X148.59Y-201.93
X151.13Y-125.73
X151.13Y-201.93
X175.26Y-201.93
X177.8Y-125.73
X177.8Y-201.93
X180.34Y-201.93
X182.88Y-125.73
X182.88Y-201.93
X208.28Y-201.93
X210.82Y-125.73
X210.82Y-201.93
X213.36Y-201.93
X215.9Y-125.73
X215.9Y-201.93
X241.3Y-201.93
X243.84Y-125.73
X243.84Y-201.93
X246.38Y-201.93
X248.92Y-125.73
X248.92Y-201.93
X274.32Y-201.93
X276.86Y-125.73
X276.86Y-201.93
X279.4Y-201.93
X281.94Y-125.73
X281.94Y-201.93
X307.34Y-201.93
X309.88Y-125.73
X309.88Y-201.93
X312.42Y-201.93
X314.96Y-125.73
X314.96Y-201.93
X340.36Y-201.93
X342.9Y-125.73
X342.9Y-201.93
X345.44Y-201.93
X347.98Y-125.73
X347.98Y-201.93
T3
X62.23Y-212.09
X62.23Y-219.71
X64.77Y-212.09
X64.77Y-219.71
X67.056Y-55.88
X67.056Y-63.5
X67.31Y-212.09
X67.31Y-219.71
X69.596Y-55.88
X69.596Y-63.5
X69.85Y-212.09
X69.85Y-219.71
X72.136Y-55.88
X72.136Y-63.5
X72.39Y-212.09
X72.39Y-219.71
X74.676Y-55.88
X74.676Y-63.5
X74.93Y-212.09
X74.93Y-219.71
X77.216Y-55.88
X77.216Y-63.5
X77.47Y-212.09
X77.47Y-219.71
X79.756Y-55.88
X79.756Y-63.5
X80.01Y-212.09
X80.01Y-219.71
X82.296Y-55.88
X82.296Y-63.5
X84.836Y-55.88
X84.836Y-63.5
X95.25Y-212.09
X95.25Y-219.71
X97.79Y-212.09
X97.79Y-219.71
X100.33Y-212.09
X100.33Y-219.71
X102.87Y-212.09
X102.87Y-219.71
X103.124Y-55.88
X103.124Y-63.5
X105.41Y-212.09
X105.41Y-219.71
X105.664Y-55.88
X105.664Y-63.5
X107.95Y-212.09
X107.95Y-219.71
X108.204Y-55.88
X108.204Y-63.5
X110.49Y-212.09
X110.49Y-219.71
X110.744Y-55.88
X110.744Y-63.5
X113.03Y-212.09
X113.03Y-219.71
X113.284Y-55.88
X113.284Y-63.5
X115.824Y-55.88
X115.824Y-63.5
X118.364Y-55.88
X118.364Y-63.5
X120.904Y-55.88
X120.904Y-63.5
X128.27Y-212.09
X128.27Y-219.71
X130.81Y-212.09
X130.81Y-219.71
X133.35Y-212.09
X133.35Y-219.71
X135.89Y-212.09
X135.89Y-219.71
X138.43Y-212.09
X138.43Y-219.71
X140.97Y-212.09
X140.97Y-219.71
X143.51Y-212.09
X143.51Y-219.71
X146.05Y-212.09
X146.05Y-219.71
X161.29Y-212.09
X161.29Y-219.71
X163.83Y-212.09
X163.83Y-219.71
X166.37Y-212.09
X166.37Y-219.71
X168.91Y-212.09
X168.91Y-219.71
X171.45Y-212.09
X171.45Y-219.71
X173.99Y-212.09
X173.99Y-219.71
X176.53Y-212.09
X176.53Y-219.71
X179.07Y-212.09
X179.07Y-219.71
X193.04Y-212.09
X193.04Y-219.71
X195.58Y-212.09
X195.58Y-219.71
X198.12Y-212.09
X198.12Y-219.71
X200.66Y-212.09
X200.66Y-219.71
X203.2Y-212.09
X203.2Y-219.71
X205.74Y-212.09
X205.74Y-219.71
X208.28Y-212.09
X208.28Y-219.71
X210.82Y-212.09
X210.82Y-219.71
X225.552Y-146.812
X225.552Y-149.352
X225.552Y-151.892
X225.552Y-154.432
X225.552Y-156.972
X225.552Y-159.512
X225.552Y-162.052
X225.552Y-164.592
X233.172Y-146.812
X233.172Y-149.352
X233.172Y-151.892
X233.172Y-154.432
X233.172Y-156.972
X233.172Y-159.512
X233.172Y-162.052
X233.172Y-164.592
X248.92Y-64.008
X248.92Y-66.548
X248.92Y-212.09
X248.92Y-219.71
X251.46Y-212.09
X251.46Y-219.71
X254.Y-212.09
X254.Y-219.71
X256.54Y-64.008
X256.54Y-66.548
X256.54Y-212.09
X256.54Y-219.71
X259.08Y-212.09
X259.08Y-219.71
X261.62Y-212.09
X261.62Y-219.71
X264.16Y-212.09
X264.16Y-219.71
X266.7Y-212.09
X266.7Y-219.71
X314.96Y-212.09
X314.96Y-219.71
X317.5Y-212.09
X317.5Y-219.71
X320.04Y-212.09
X320.04Y-219.71
X322.58Y-212.09
X322.58Y-219.71
X325.12Y-212.09
X325.12Y-219.71
X327.66Y-212.09
X327.66Y-219.71
X330.2Y-212.09
X330.2Y-219.71
X332.74Y-212.09
X332.74Y-219.71
T4
X215.138Y-72.39
X215.138Y-84.89
X220.138Y-72.39
X220.138Y-84.89
T5
X62.27Y-120.19
X62.27Y-126.19
X62.27Y-131.62
X62.27Y-137.62
X62.27Y-143.05
X62.27Y-149.05
X62.27Y-154.48
X62.27Y-160.48
X62.27Y-165.91
X62.27Y-171.91
X62.27Y-177.34
X62.27Y-183.34
X62.27Y-188.77
X62.27Y-194.77
X62.27Y-200.2
X62.27Y-206.2
X64.77Y-120.19
X64.77Y-126.19
X64.77Y-131.62
X64.77Y-137.62
X64.77Y-143.05
X64.77Y-149.05
X64.77Y-154.48
X64.77Y-160.48
X64.77Y-165.91
X64.77Y-171.91
X64.77Y-177.34
X64.77Y-183.34
X64.77Y-188.77
X64.77Y-194.77
X64.77Y-200.2
X64.77Y-206.2
X67.27Y-120.19
X67.27Y-126.19
X67.27Y-131.62
X67.27Y-137.62
X67.27Y-143.05
X67.27Y-149.05
X67.27Y-154.48
X67.27Y-160.48
X67.27Y-165.91
X67.27Y-171.91
X67.27Y-177.34
X67.27Y-183.34
X67.27Y-188.77
X67.27Y-194.77
X67.27Y-200.2
X67.27Y-206.2
X95.29Y-120.19
X95.29Y-126.19
X95.29Y-131.62
X95.29Y-137.62
X95.29Y-143.05
X95.29Y-149.05
X95.29Y-154.48
X95.29Y-160.48
X95.29Y-165.91
X95.29Y-171.91
X95.29Y-177.34
X95.29Y-183.34
X95.29Y-188.77
X95.29Y-194.77
X95.29Y-200.2
X95.29Y-206.2
X97.79Y-120.19
X97.79Y-126.19
X97.79Y-131.62
X97.79Y-137.62
X97.79Y-143.05
X97.79Y-149.05
X97.79Y-154.48
X97.79Y-160.48
X97.79Y-165.91
X97.79Y-171.91
X97.79Y-177.34
X97.79Y-183.34
X97.79Y-188.77
X97.79Y-194.77
X97.79Y-200.2
X97.79Y-206.2
X100.29Y-120.19
X100.29Y-126.19
X100.29Y-131.62
X100.29Y-137.62
X100.29Y-143.05
X100.29Y-149.05
X100.29Y-154.48
X100.29Y-160.48
X100.29Y-165.91
X100.29Y-171.91
X100.29Y-177.34
X100.29Y-183.34
X100.29Y-188.77
X100.29Y-194.77
X100.29Y-200.2
X100.29Y-206.2
X128.31Y-120.19
X128.31Y-126.19
X128.31Y-131.62
X128.31Y-137.62
X128.31Y-143.05
X128.31Y-149.05
X128.31Y-154.48
X128.31Y-160.48
X128.31Y-165.91
X128.31Y-171.91
X128.31Y-177.34
X128.31Y-183.34
X128.31Y-188.77
X128.31Y-194.77
X128.31Y-200.2
X128.31Y-206.2
X130.81Y-120.19
X130.81Y-126.19
X130.81Y-131.62
X130.81Y-137.62
X130.81Y-143.05
X130.81Y-149.05
X130.81Y-154.48
X130.81Y-160.48
X130.81Y-165.91
X130.81Y-171.91
X130.81Y-177.34
X130.81Y-183.34
X130.81Y-188.77
X130.81Y-194.77
X130.81Y-200.2
X130.81Y-206.2
X133.31Y-120.19
X133.31Y-126.19
X133.31Y-131.62
X133.31Y-137.62
X133.31Y-143.05
X133.31Y-149.05
X133.31Y-154.48
X133.31Y-160.48
X133.31Y-165.91
X133.31Y-171.91
X133.31Y-177.34
X133.31Y-183.34
X133.31Y-188.77
X133.31Y-194.77
X133.31Y-200.2
X133.31Y-206.2
X161.33Y-120.19
X161.33Y-126.19
X161.33Y-131.62
X161.33Y-137.62
X161.33Y-143.05
X161.33Y-149.05
X161.33Y-154.48
X161.33Y-160.48
X161.33Y-165.91
X161.33Y-171.91
X161.33Y-177.34
X161.33Y-183.34
X161.33Y-188.77
X161.33Y-194.77
X161.33Y-200.2
X161.33Y-206.2
X163.83Y-120.19
X163.83Y-126.19
X163.83Y-131.62
X163.83Y-137.62
X163.83Y-143.05
X163.83Y-149.05
X163.83Y-154.48
X163.83Y-160.48
X163.83Y-165.91
X163.83Y-171.91
X163.83Y-177.34
X163.83Y-183.34
X163.83Y-188.77
X163.83Y-194.77
X163.83Y-200.2
X163.83Y-206.2
X166.33Y-120.19
X166.33Y-126.19
X166.33Y-131.62
X166.33Y-137.62
X166.33Y-143.05
X166.33Y-149.05
X166.33Y-154.48
X166.33Y-160.48
X166.33Y-165.91
X166.33Y-171.91
X166.33Y-177.34
X166.33Y-183.34
X166.33Y-188.77
X166.33Y-194.77
X166.33Y-200.2
X166.33Y-206.2
X193.08Y-120.19
X193.08Y-126.19
X193.08Y-131.62
X193.08Y-137.62
X193.08Y-143.05
X193.08Y-149.05
X193.08Y-154.48
X193.08Y-160.48
X193.08Y-165.91
X193.08Y-171.91
X193.08Y-177.34
X193.08Y-183.34
X193.08Y-188.77
X193.08Y-194.77
X193.08Y-200.2
X193.08Y-206.2
X195.58Y-120.19
X195.58Y-126.19
X195.58Y-131.62
X195.58Y-137.62
X195.58Y-143.05
X195.58Y-149.05
X195.58Y-154.48
X195.58Y-160.48
X195.58Y-165.91
X195.58Y-171.91
X195.58Y-177.34
X195.58Y-183.34
X195.58Y-188.77
X195.58Y-194.77
X195.58Y-200.2
X195.58Y-206.2
X198.08Y-120.19
X198.08Y-126.19
X198.08Y-131.62
X198.08Y-137.62
X198.08Y-143.05
X198.08Y-149.05
X198.08Y-154.48
X198.08Y-160.48
X198.08Y-165.91
X198.08Y-171.91
X198.08Y-177.34
X198.08Y-183.34
X198.08Y-188.77
X198.08Y-194.77
X198.08Y-200.2
X198.08Y-206.2
X226.1Y-177.34
X226.1Y-183.34
X226.1Y-188.77
X226.1Y-194.77
X226.1Y-200.2
X226.1Y-206.2
X228.6Y-177.34
X228.6Y-183.34
X228.6Y-188.77
X228.6Y-194.77
X228.6Y-200.2
X228.6Y-206.2
X231.1Y-177.34
X231.1Y-183.34
X231.1Y-188.77
X231.1Y-194.77
X231.1Y-200.2
X231.1Y-206.2
X259.12Y-177.34
X259.12Y-183.34
X259.12Y-188.77
X259.12Y-194.77
X259.12Y-200.2
X259.12Y-206.2
X261.62Y-177.34
X261.62Y-183.34
X261.62Y-188.77
X261.62Y-194.77
X261.62Y-200.2
X261.62Y-206.2
X264.12Y-177.34
X264.12Y-183.34
X264.12Y-188.77
X264.12Y-194.77
X264.12Y-200.2
X264.12Y-206.2
X292.14Y-177.34
X292.14Y-183.34
X292.14Y-188.77
X292.14Y-194.77
X292.14Y-200.2
X292.14Y-206.2
X294.64Y-177.34
X294.64Y-183.34
X294.64Y-188.77
X294.64Y-194.77
X294.64Y-200.2
X294.64Y-206.2
X297.14Y-177.34
X297.14Y-183.34
X297.14Y-188.77
X297.14Y-194.77
X297.14Y-200.2
X297.14Y-206.2
X325.16Y-177.34
X325.16Y-183.34
X325.16Y-188.77
X325.16Y-194.77
X325.16Y-200.2
X325.16Y-206.2
X327.66Y-177.34
X327.66Y-183.34
X327.66Y-188.77
X327.66Y-194.77
X327.66Y-200.2
X327.66Y-206.2
X330.16Y-177.34
X330.16Y-183.34
X330.16Y-188.77
X330.16Y-194.77
X330.16Y-200.2
X330.16Y-206.2
X358.18Y-177.34
X358.18Y-183.34
X358.18Y-188.77
X358.18Y-194.77
X358.18Y-200.2
X358.18Y-206.2
X360.68Y-177.34
X360.68Y-183.34
X360.68Y-188.77
X360.68Y-194.77
X360.68Y-200.2
X360.68Y-206.2
X363.18Y-177.34
X363.18Y-183.34
X363.18Y-188.77
X363.18Y-194.77
X363.18Y-200.2
X363.18Y-206.2
T6
X235.585Y-71.12
X238.125Y-71.12
X240.665Y-71.12
X243.205Y-71.12
X245.745Y-71.12
X250.825Y-71.12
X253.365Y-71.12
X255.778Y-108.077
X255.905Y-71.12
X256.54Y-54.61
X256.54Y-57.15
X258.318Y-108.077
X260.858Y-108.077
X260.985Y-71.12
X263.398Y-108.077
X263.525Y-71.12
X265.938Y-108.077
X268.605Y-108.077
X271.145Y-108.077
X273.685Y-108.077
T7
X225.428Y-84.966
X225.428Y-100.206
X227.968Y-84.966
X227.968Y-100.206
X230.508Y-84.966
X230.508Y-100.206
X233.048Y-84.966
X233.048Y-100.206
X235.588Y-84.966
X235.588Y-100.206
X238.128Y-84.966
X238.128Y-100.206
X240.668Y-84.966
X240.668Y-100.206
X243.208Y-84.966
X243.208Y-100.206
X245.748Y-84.966
X245.748Y-100.206
X248.288Y-84.966
X248.288Y-100.206
X250.828Y-84.966
X250.828Y-100.206
X253.368Y-84.966
X253.368Y-100.206
X255.908Y-84.966
X255.908Y-100.206
X258.448Y-84.966
X258.448Y-100.206
X260.988Y-84.966
X260.988Y-100.206
X263.528Y-84.966
X263.528Y-100.206
X266.068Y-84.966
X266.068Y-100.206
X268.608Y-84.966
X268.608Y-100.206
X271.148Y-84.966
X271.148Y-100.206
X273.688Y-84.966
X273.688Y-100.206
T8
X261.874Y-54.61
X261.874Y-67.31
T9
X60.96Y-76.2
X60.96Y-81.2
X60.96Y-86.2
X60.96Y-99.06
X60.96Y-104.06
X60.96Y-109.06
X93.98Y-76.2
X93.98Y-81.2
X93.98Y-86.2
X93.98Y-99.06
X93.98Y-104.06
X93.98Y-109.06
X127.Y-76.2
X127.Y-81.2
X127.Y-86.2
X127.Y-99.06
X127.Y-104.06
X127.Y-109.06
X160.02Y-53.34
X160.02Y-58.34
X160.02Y-63.34
X160.02Y-76.2
X160.02Y-81.2
X160.02Y-86.2
X160.02Y-99.06
X160.02Y-104.06
X160.02Y-109.06
X191.77Y-53.34
X191.77Y-58.34
X191.77Y-63.34
X191.77Y-76.2
X191.77Y-81.2
X191.77Y-86.2
X191.77Y-99.06
X191.77Y-104.06
X191.77Y-109.06
T0
M30
